<?xml version="1.0" encoding="utf-8"?>
<!-- Generator: Adobe Illustrator 16.0.0, SVG Export Plug-In . SVG Version: 6.00 Build 0)  -->
<!DOCTYPE svg PUBLIC "-//W3C//DTD SVG 1.1//EN" "http://www.w3.org/Graphics/SVG/1.1/DTD/svg11.dtd">
<svg version="1.1" xmlns="http://www.w3.org/2000/svg" xmlns:xlink="http://www.w3.org/1999/xlink" x="0px" y="0px"
	 width="328.447px" height="64.71px" viewBox="7.79 6.263 328.447 64.71" enable-background="new 7.79 6.263 328.447 64.71"
	 xml:space="preserve">
<g id="Lager_2">
</g>
<g id="Layer_1">
	<rect x="71.632" y="8.263" fill="none" width="278.947" height="73.684"/>
	<text transform="matrix(1 0 0 1 71.6318 69.2227)" fill="#FFFFFF" font-family="'Roboto-Light'" font-size="80">DinSide</text>
	<path fill="#FFFFFF" d="M57.632,6.263H19.79c-6.627,0-12,5.622-12,12.557v39.597c0,6.935,5.373,12.557,12,12.557h37.842
		c6.627,0,12-5.622,12-12.557V18.82C69.632,11.885,64.259,6.263,57.632,6.263z M25.842,62.666c-3.313,0-6-2.687-6-6s2.687-6,6-6
		c3.314,0,6,2.687,6,6S29.156,62.666,25.842,62.666z M25.842,45.185c-3.313,0-6-2.688-6-6c0-3.314,2.687-6,6-6c3.314,0,6,2.686,6,6
		C31.842,42.497,29.156,45.185,25.842,45.185z M25.842,26.667c-3.313,0-6-2.687-6-6s2.687-6,6-6c3.314,0,6,2.687,6,6
		S29.156,26.667,25.842,26.667z M50.842,62.666c-3.313,0-6-2.687-6-6s2.687-6,6-6c3.314,0,6,2.687,6,6S54.156,62.666,50.842,62.666z
		 M50.842,45.185c-3.313,0-6-2.688-6-6c0-3.314,2.687-6,6-6c3.314,0,6,2.686,6,6C56.842,42.497,54.156,45.185,50.842,45.185z
		 M50.842,26.667c-3.313,0-6-2.687-6-6s2.687-6,6-6c3.314,0,6,2.687,6,6S54.156,26.667,50.842,26.667z"/>
</g>
</svg>
