<?xml version="1.0" encoding="utf-8"?>
<!-- Generator: Adobe Illustrator 16.0.0, SVG Export Plug-In . SVG Version: 6.00 Build 0)  -->
<!DOCTYPE svg PUBLIC "-//W3C//DTD SVG 1.1//EN" "http://www.w3.org/Graphics/SVG/1.1/DTD/svg11.dtd">
<svg version="1.1" id="Lager_1" xmlns="http://www.w3.org/2000/svg" xmlns:xlink="http://www.w3.org/1999/xlink" x="0px" y="0px"
	 width="328.447px" height="64.71px" viewBox="0 0 328.447 64.71" enable-background="new 0 0 328.447 64.71" xml:space="preserve">
<g id="Lager_2">
</g>
<rect x="63.842" y="1" fill="none" width="278.947" height="73.683"/>
<text transform="matrix(1 0 0 1 67.842 60.9604)" fill="#FFFFFF" font-family="'Roboto-Light'" font-size="80">DinSide</text>
<path fill="#FFFFFF" d="M49.842-1H12C5.373-1,0,4.622,0,11.557v39.597C0,58.089,5.373,63.71,12,63.71h37.842
	c6.627,0,12-5.621,12-12.557V11.557C61.842,4.622,56.469-1,49.842-1z M18.052,55.402c-3.312,0-6-2.686-6-6c0-3.312,2.688-6,6-6
	c3.314,0,6,2.688,6,6C24.052,52.716,21.366,55.402,18.052,55.402z M18.052,37.921c-3.312,0-6-2.688-6-6c0-3.314,2.688-6,6-6
	c3.314,0,6,2.686,6,6C24.052,35.234,21.366,37.921,18.052,37.921z M18.052,19.404c-3.312,0-6-2.687-6-6s2.688-6,6-6
	c3.314,0,6,2.687,6,6S21.366,19.404,18.052,19.404z M43.052,55.402c-3.312,0-6-2.686-6-6c0-3.312,2.688-6,6-6c3.314,0,6,2.688,6,6
	C49.052,52.716,46.366,55.402,43.052,55.402z M43.052,37.921c-3.312,0-6-2.688-6-6c0-3.314,2.688-6,6-6c3.314,0,6,2.686,6,6
	C49.052,35.234,46.366,37.921,43.052,37.921z M43.052,19.404c-3.312,0-6-2.687-6-6s2.688-6,6-6c3.314,0,6,2.687,6,6
	S46.366,19.404,43.052,19.404z"/>
</svg>
