<?xml version="1.0" encoding="utf-8"?>
<!-- Generator: Adobe Illustrator 16.0.0, SVG Export Plug-In . SVG Version: 6.00 Build 0)  -->
<!DOCTYPE svg PUBLIC "-//W3C//DTD SVG 1.1//EN" "http://www.w3.org/Graphics/SVG/1.1/DTD/svg11.dtd">
<svg version="1.1" id="Lager_1" xmlns="http://www.w3.org/2000/svg" xmlns:xlink="http://www.w3.org/1999/xlink" x="0px" y="0px"
	 width="328.447px" height="64.71px" viewBox="0 0 328.447 64.71" enable-background="new 0 0 328.447 64.71" xml:space="preserve">
<g id="Lager_2">
</g>
<rect x="63.842" y="1" fill="none" width="278.947" height="73.683"/>
<g enable-background="new    ">
	<path fill="#FFFFFF" d="M75.303,60.96V4.085h16.523c6.953,0,12.695,2.318,17.227,6.953c4.531,4.636,6.797,10.586,6.797,17.852
		v7.305c0,7.292-2.266,13.242-6.797,17.852S98.78,60.96,91.826,60.96H75.303z M79.951,8.07v48.906h11.875
		c5.625,0,10.254-1.964,13.887-5.894s5.449-8.899,5.449-14.91v-7.416c0-5.933-1.823-10.863-5.469-14.792
		c-3.646-3.93-8.269-5.895-13.867-5.895H79.951z"/>
	<path fill="#FFFFFF" d="M131.748,6.585H127.1V0.023h4.648V6.585z M131.748,60.96H127.1V18.695h4.648V60.96z"/>
	<path fill="#FFFFFF" d="M148.819,18.695l0.43,7.383c1.354-2.604,3.184-4.615,5.488-6.035c2.305-1.419,5.032-2.129,8.184-2.129
		c4.583,0,8.073,1.4,10.469,4.199c2.395,2.8,3.594,7.168,3.594,13.105V60.96h-4.688V35.207c0-4.854-0.906-8.285-2.715-10.295
		c-1.811-2.009-4.383-3.014-7.715-3.014c-3.281,0-5.957,0.868-8.027,2.604c-2.07,1.734-3.562,4.038-4.473,6.907V60.96h-4.688V18.695
		H148.819z"/>
	<path fill="#FFFFFF" d="M223.038,46.994c0-3.093-1.16-5.622-3.477-7.585c-2.318-1.963-6.355-3.698-12.109-5.206
		c-6.225-1.562-10.938-3.594-14.141-6.094s-4.805-5.872-4.805-10.117c0-4.349,1.789-7.891,5.371-10.625
		c3.58-2.734,8.184-4.102,13.809-4.102c5.859,0,10.586,1.628,14.18,4.883c3.594,3.256,5.338,7.227,5.234,11.914l-0.117,0.234h-4.297
		c0-3.802-1.348-6.927-4.043-9.375c-2.695-2.447-6.348-3.672-10.957-3.672c-4.559,0-8.119,1.016-10.684,3.047
		c-2.566,2.031-3.848,4.558-3.848,7.578c0,2.865,1.184,5.254,3.555,7.168c2.369,1.914,6.457,3.601,12.266,5.059
		c6.119,1.562,10.773,3.672,13.965,6.328c3.189,2.656,4.785,6.159,4.785,10.508c0,4.531-1.855,8.139-5.566,10.82
		c-3.711,2.683-8.445,4.023-14.199,4.023c-5.678,0-10.633-1.426-14.863-4.277c-4.232-2.852-6.283-7.012-6.152-12.48l0.078-0.234
		h4.297c0,4.414,1.652,7.686,4.961,9.814c3.307,2.129,7.199,3.193,11.68,3.193c4.504,0,8.145-0.987,10.918-2.964
		C221.651,52.857,223.038,50.244,223.038,46.994z"/>
	<path fill="#FFFFFF" d="M242.53,6.585h-4.648V0.023h4.648V6.585z M242.53,60.96h-4.648V18.695h4.648V60.96z"/>
	<path fill="#FFFFFF" d="M253.624,40.179c0-6.744,1.426-12.142,4.277-16.191c2.852-4.049,6.828-6.074,11.934-6.074
		c2.941,0,5.494,0.625,7.656,1.875c2.16,1.25,3.957,3.021,5.391,5.312V0.023h4.648V60.96h-4.141l-0.391-6.133
		c-1.406,2.24-3.217,3.959-5.43,5.156c-2.215,1.197-4.818,1.797-7.812,1.797c-5.053,0-9.004-1.881-11.855-5.645
		c-2.852-3.763-4.277-8.809-4.277-15.137V40.179z M258.311,41.004c0,5.127,1.021,9.207,3.066,12.241
		c2.043,3.034,5.123,4.551,9.238,4.551c3.02,0,5.539-0.68,7.559-2.04c2.018-1.359,3.586-3.243,4.707-5.649V30.176
		c-1.068-2.459-2.578-4.452-4.531-5.982s-4.506-2.296-7.656-2.296c-4.115,0-7.207,1.693-9.277,5.08
		c-2.07,3.388-3.105,7.789-3.105,13.202V41.004z"/>
	<path fill="#FFFFFF" d="M315.85,61.781c-5.287,0-9.682-1.953-13.184-5.859c-3.504-3.906-5.254-8.854-5.254-14.844v-2.148
		c0-6.041,1.738-11.055,5.215-15.039s7.688-5.977,12.637-5.977c5.182,0,9.258,1.641,12.227,4.922s4.453,7.656,4.453,13.125v3.984
		H302.1v1.131c0,4.755,1.262,8.73,3.789,11.927c2.525,3.196,5.846,4.794,9.961,4.794c2.916,0,5.402-0.403,7.461-1.211
		c2.057-0.807,3.814-1.966,5.273-3.477l1.992,3.203c-1.59,1.674-3.602,3.003-6.035,3.989
		C322.106,61.288,319.21,61.781,315.85,61.781z M315.264,21.898c-3.465,0-6.367,1.318-8.711,3.954s-3.711,5.94-4.102,9.914
		l0.078,0.194h24.766v-1.169c0-3.661-1.082-6.726-3.242-9.193C321.891,23.131,318.962,21.898,315.264,21.898z"/>
</g>
<path fill="#FFFFFF" d="M49.842-1H12C5.373-1,0,4.622,0,11.557v39.597C0,58.089,5.373,63.71,12,63.71h37.842
	c6.628,0,12-5.621,12-12.558V11.557C61.842,4.622,56.469-1,49.842-1z M18.052,55.402c-3.312,0-6-2.686-6-6c0-3.312,2.688-6,6-6
	c3.314,0,6,2.688,6,6C24.052,52.716,21.366,55.402,18.052,55.402z M18.052,37.921c-3.312,0-6-2.688-6-6c0-3.314,2.688-6,6-6
	c3.314,0,6,2.686,6,6C24.052,35.234,21.366,37.921,18.052,37.921z M18.052,19.404c-3.312,0-6-2.687-6-6s2.688-6,6-6
	c3.314,0,6,2.687,6,6S21.366,19.404,18.052,19.404z M43.052,55.402c-3.312,0-6-2.686-6-6c0-3.312,2.688-6,6-6c3.314,0,6,2.688,6,6
	C49.052,52.716,46.366,55.402,43.052,55.402z M43.052,37.921c-3.312,0-6-2.688-6-6c0-3.314,2.688-6,6-6c3.314,0,6,2.686,6,6
	C49.052,35.234,46.366,37.921,43.052,37.921z M43.052,19.404c-3.312,0-6-2.687-6-6s2.688-6,6-6c3.314,0,6,2.687,6,6
	S46.366,19.404,43.052,19.404z"/>
</svg>
